<?xml version="1.0" standalone="no"?><!DOCTYPE svg PUBLIC "-//W3C//DTD SVG 1.1//EN" "http://www.w3.org/Graphics/SVG/1.1/DTD/svg11.dtd"><svg t="1616831832440" class="icon" viewBox="0 0 1024 1024" version="1.1" xmlns="http://www.w3.org/2000/svg" p-id="2374" xmlns:xlink="http://www.w3.org/1999/xlink" width="200" height="200"><defs><style type="text/css"></style></defs><path d="M512.1536 102.656A409.2928 409.2928 0 0 0 102.8096 512a409.2928 409.2928 0 0 0 409.344 409.2928A409.2928 409.2928 0 0 0 921.4464 512a409.2928 409.2928 0 0 0-409.2928-409.344z" fill="#FF509B" p-id="2375"></path><path d="M238.336 370.8928c0 27.5968 0 54.9888 0.4608 82.5344 0.3072 14.336 0.768 28.672 1.8944 43.008 1.2288 17.1008 3.1232 34.5088 4.6592 51.968 0 0.768 0.512 1.4336 0.512 1.8944 5.888-0.3072 11.6736-0.768 17.408-0.768 24.4736-0.6656 48.384 2.6624 71.3216 11.6736 11.2128 4.5056 22.1184 9.6768 31.744 16.9472 7.9872 6.0416 9.8304 13.5168 5.5296 24.5248a33.024 33.024 0 0 1-12.4416 16.384c-13.568 10.7008-27.5456 20.0704-43.9296 25.4976a211.7632 211.7632 0 0 1-35.1744 8.6016c-15.5648 2.304-31.4368 3.4304-47.3088 4.9664-3.2768 0.512-6.4 0-9.8304 0-1.536 0-2.048-0.768-2.048-2.304-0.1536-7.0144-0.768-14.336-1.2288-21.6576a872.0896 872.0896 0 0 0-2.816-27.8016l-4.608-38.7584c-1.5872-13.6704-3.4816-27.2384-5.0176-40.8064-1.536-13.4144-2.816-26.624-4.6592-39.8848-2.2016-15.104-4.2496-30.0544-6.5536-45.4144a407.9616 407.9616 0 0 0-10.3936-53.0944c-0.3072-0.768 0.4608-2.304 0.9216-2.816 15.4112-5.888 30.72-11.9296 46.08-18.2272 4.9664-2.2016 5.4784-2.9696 5.4784 3.584z m330.0352 0c0 27.5968 0 54.9888 0.4608 82.5344 0.3072 14.336 0.768 28.672 1.8944 43.008 1.2288 17.1008 3.1232 34.5088 4.6592 51.968 0 0.768 0.512 1.4336 0.512 1.8944 5.888-0.3072 11.6736-0.768 17.408-0.768 24.4736-0.6656 48.384 2.6624 71.3216 11.6736 11.2128 4.5056 22.0672 9.6768 31.744 16.9472 8.0896 6.0416 9.8816 13.5168 5.376 24.4224a33.0752 33.0752 0 0 1-12.3904 16.3328c-13.568 10.752-27.5968 20.0704-43.9296 25.5488a211.7632 211.7632 0 0 1-35.1744 8.5504c-15.616 2.3552-31.488 3.4816-47.36 5.0176-3.2256 0.4608-6.4 0-9.8304 0-1.536 0-2.048-0.768-2.048-2.304-0.1536-7.0144-0.7168-14.336-1.1776-21.6576a875.008 875.008 0 0 0-2.816-27.8528l-4.6592-38.7072c-1.536-13.7216-3.4304-27.2896-4.9664-40.8576-1.536-13.3632-2.816-26.624-4.7104-39.8336-2.2016-15.104-4.1984-30.0544-6.5024-45.4656a407.9616 407.9616 0 0 0-10.4448-53.0432c-0.1536-0.8192 0.6656-2.3552 1.0752-2.6624 15.36-5.9392 30.72-11.9808 46.08-18.2784 5.0176-2.2016 5.4784-2.9696 5.4784 3.584z m-89.2416 147.3024c8.1408 0 16.384 0.1536 24.4736 0.512 2.048 0 3.1232 1.536 3.1232 3.3792 0.2048 4.2496 0.512 8.1408 0.512 12.3392 0 18.9952-0.3072 38.3488 0 57.2928 0.256 15.36 0.768 30.4128 1.024 45.7728 0 0.768 0 1.8944 0.3072 3.584-8.704-0.0512-17.4592 0.2048-25.7024-0.0512-0.768 0-2.048-1.28-2.048-2.048-1.1776-13.568-2.2528-27.0336-3.5328-40.6016l-3.4304-37.6832c-1.024-12.8-2.304-25.7536-3.4304-38.7584 0-0.768 0-1.536-0.3072-2.6624a42.9056 42.9056 0 0 1 9.0112-1.0752z m330.0864 0c8.1408 0 16.384 0.1536 24.4736 0.512 2.048 0 3.1232 1.536 3.1232 3.3792 0.2048 4.2496 0.512 8.1408 0.512 12.3392 0 18.9952-0.3072 38.3488 0 57.2928 0.3072 15.36 0.768 30.4128 1.024 45.7728 0 0.768 0 1.8944 0.3072 3.584-8.704-0.0512-17.4592 0.2048-25.7024-0.0512-0.768 0-2.048-1.28-2.048-2.048-1.1776-13.568-2.2528-27.0336-3.5328-40.6016l-3.4304-37.6832c-1.024-12.8-2.304-25.7536-3.4304-38.7584 0-0.768 0-1.536-0.3072-2.6624a42.9056 42.9056 0 0 1 9.0112-1.0752z m-403.3536-1.1264c0.9216 6.2464 2.048 12.4416 2.7648 18.9952 1.4336 10.6496 2.304 21.3504 3.4304 31.9488 1.0752 9.3696 2.048 18.5344 3.1744 27.8528 1.024 9.8304 2.304 19.7632 3.584 30.0032 0.256 2.816 0.7168 5.9392 1.024 9.0112-9.0624 1.1264-17.92 2.2016-27.2896 3.4816a14628.352 14628.352 0 0 1-23.6544-120.6784c6.5024-0.768 12.8-1.8944 18.9952-2.6624 4.5056-0.6656 9.216-0.6656 13.568-1.0752 2.5088-0.3072 4.0448 0.768 4.4032 3.1232z m330.0864 0c0.9728 6.2464 2.048 12.4416 2.7648 18.9952 1.4336 10.6496 2.3552 21.3504 3.4816 31.9488l3.072 27.8528 3.584 30.0032c0.3072 2.816 0.768 5.9392 1.0752 9.0112-9.0624 1.1264-17.92 2.2016-27.2896 3.4816-8.1408-40.3456-15.872-80.0768-23.6544-120.6784 6.5024-0.768 12.8-1.8944 19.0464-2.6624 4.5056-0.6656 9.1648-0.6656 13.5168-1.0752 2.5088-0.3072 4.0448 0.768 4.4032 3.1232z m-292.352-112.8448l2.304 35.1744c1.024 15.872 2.304 31.744 3.4304 47.616 0.768 11.52 1.2288 22.8864 2.304 34.4576 1.0752 12.5952 2.304 25.088 3.4304 37.4784 1.0752 9.0112 1.8944 18.5344 2.6624 27.5456 1.0752 9.8304 2.2016 19.8144 2.816 30.0544l0.768 8.5504c0.0512 1.536-0.7168 1.8432-2.2528 1.536-8.0896-0.768-15.872-1.2288-24.4736-1.9968-7.3216-73.9328-13.568-148.48-27.5456-222.976l13.824-1.536 16.2304-1.024c4.5056-0.3584 6.1952 0.7168 6.5024 5.12z m330.0352 0l2.304 35.1744c1.024 15.872 2.304 31.744 3.4304 47.616 0.768 11.52 1.28 22.8864 2.304 34.4576 1.0752 12.5952 2.304 25.088 3.4816 37.4784 1.024 9.0112 1.8432 18.5344 2.6624 27.5456 1.024 9.8304 2.1504 19.8144 2.7648 30.0544l0.768 8.5504c0.1024 1.536-0.6656 1.8432-2.2528 1.536-8.1408-0.768-15.872-1.2288-24.4736-1.9968-7.3216-73.9328-13.568-148.48-27.5456-222.976l13.824-1.536 16.2304-1.024c4.5056-0.3584 6.1952 0.7168 6.5024 5.12z m-293.12 53.76v0.1024c2.048 0 2.7648 0.4608 2.7648 2.7648-0.3072 6.2464 0 12.8 0 18.9952v23.6544c-4.6592 0.512-8.8576 0.768-13.056 1.024-1.28-15.0528-2.3552-30.3104-3.584-46.5408h13.824z m330.0864 0v0.1024c2.048 0 2.7648 0.4608 2.7648 2.7648-0.3072 6.2464 0 12.8 0 18.9952v23.6544c-4.6592 0.512-8.8576 0.768-13.056 1.024-1.28-15.0528-2.3552-30.3104-3.584-46.5408h13.8752z m-308.1216 0.2048c2.304 0 3.4304 0.768 3.4304 3.584v42.6496l-16.896-0.768V458.24h13.4656z m330.0864 0c2.304 0 3.4304 0.768 3.4304 3.584v42.6496l-16.896-0.768V458.24h13.4656z m-458.3936-2.6112c2.2016-0.3072 1.536 1.536 1.8944 2.7648l1.536 15.4112c0.768 8.1408 1.8944 15.872 2.6624 24.0128v3.1232l-12.5952 2.2016c-2.816-15.104-5.4784-30.0544-8.2432-45.4656 4.9664-0.512 9.728-1.6384 14.7456-2.048z m330.0864 0c2.2016-0.3072 1.536 1.536 1.8944 2.7648l1.536 15.4112c0.768 8.1408 1.8944 15.872 2.6624 24.0128v3.1232l-12.5952 2.2016c-2.816-15.104-5.4784-30.0544-8.2432-45.4656 4.9152-0.512 9.728-1.6384 14.7456-2.048z m-308.0192-2.5088c1.536 0 2.3552 0.9728 2.7136 2.816 1.3824 14.336 2.6624 28.3136 4.1984 43.1104-5.4784 0.6656-10.5984 0.768-16.384 1.2288l-5.888-46.848c5.3248-0.3072 10.3936-0.3072 15.36-0.3072z m330.1376 0c1.536 0 2.304 0.9728 2.6624 2.816 1.3824 14.336 2.6624 28.3136 4.1984 43.1104-5.4784 0.6656-10.5984 0.768-16.384 1.2288l-5.888-46.848c5.2736-0.3072 10.3936-0.3072 15.36-0.3072z" fill="#FFFFFF" p-id="2376"></path><path d="M269.5168 578.7648c2.3552 16.7936 4.7104 33.7408 7.0144 51.2 14.336-10.752 28.0064-21.2992 41.8816-31.744-1.8432-2.3552-39.8848-17.4592-48.896-19.456z m330.1376 0c2.304 16.7936 4.6592 33.7408 6.9632 51.2 14.336-10.752 28.0064-21.2992 41.8816-31.744-1.8432-2.3552-39.8336-17.4592-48.8448-19.456z" fill="#F66E98" p-id="2377"></path></svg>