<?xml version="1.0" standalone="no"?><!DOCTYPE svg PUBLIC "-//W3C//DTD SVG 1.1//EN" "http://www.w3.org/Graphics/SVG/1.1/DTD/svg11.dtd"><svg t="1616831910930" class="icon" viewBox="0 0 1024 1024" version="1.1" xmlns="http://www.w3.org/2000/svg" p-id="1338" xmlns:xlink="http://www.w3.org/1999/xlink" width="200" height="200"><defs><style type="text/css"></style></defs><path d="M512 512m-512 0a512 512 0 1 0 1024 0 512 512 0 1 0-1024 0Z" fill="#0084FF" p-id="1339"></path><path d="M292.242286 511.012571h90.624c2.011429-29.750857 0-93.696 0-138.898285h-44.233143c-12.379429 26.624-23.954286 48.329143-46.72 57.051428a54.308571 54.308571 0 0 1-33.828572 2.944c10.038857 1.152 44.379429-120.649143 61.129143-142.994285a63.835429 63.835429 0 0 1 46.902857-23.04 250.788571 250.788571 0 0 1-20.114285 69.211428h167.68v36.992h-90.953143c0 44.708571 1.682286 108.653714 0 138.898286h105.197714l-0.512 37.302857-106.532571-0.475429c-1.005714 8.045714-1.828571 27.611429-2.834286 35.163429 0 0 55.771429 57.216 85.412571 94.354286v64.274285c-31.634286-41.252571-97.481143-118.509714-97.481142-118.509714-39.698286 98.962286-95.140571 134.619429-95.140572 134.619429h-61.147428s120.777143-129.846857 129.993142-209.078857h-126.299428l38.857143-37.814858z m255.451428-178.194285h210.212572V705.828571l-85.577143 0.329143-63.670857 51.273143-25.782857-51.602286h-35.181715V332.8z m171.355429 35.84h-132.333714v293.248h7.533714l22.619428 46.025143 58.294858-46.025143h43.885714V368.658286z" fill="#FFFFFF" p-id="1340"></path></svg>