<?xml version="1.0" ?><svg id="Layer_1" style="enable-background:new 0 0 1024 1024;" version="1.1" viewBox="0 0 1024 1024" xml:space="preserve" xmlns="http://www.w3.org/2000/svg" xmlns:xlink="http://www.w3.org/1999/xlink"><g id="XMLID_2885_"><g id="XMLID_2949_"><g id="XMLID_24_"><path d="M849.1,450c-10.3,10.3-20.6,20.6-30.9,30.9c-4.1,4.1-8.3,8.2-12.4,12.4c-11.6,11.7-20.2,26.3-24.6,42.2     c-4.9,17.9-3.4,37.4-3.4,55.8c0,8.4,0,16.9,0,25.3c0,1.8,0,3.6,0,5.3c0,2.6-0.2,5.2-0.4,7.7c-0.1,2.3,0.3-1.9,0.3-1.9     c-0.3,0.8-0.3,1.8-0.4,2.7c-0.3,1.8-0.7,3.5-1.2,5.3c-0.4,1.3-1.7,8.4-2.9,8.9c0.4-0.2,1.8-3.8,0.4-1.1c-0.4,0.8-0.8,1.6-1.2,2.4     c-0.8,1.6-1.7,3.1-2.6,4.6c-0.8,1.3-1.6,2.6-2.5,3.9c-0.5,0.7-1,1.4-1.5,2.1c-1.2,1.9,1.1-1.6,1.1-1.5c0.4,1-6.3,6.8-7.1,7.6     c-1.1,1-2.4,1.9-3.4,3c-1.8,1.9,3.2-2.1,1-0.7c-0.5,0.3-1.1,0.8-1.6,1.2c-2.9,2-5.9,3.8-9,5.4c-0.8,0.4-5.1,2.5-2.4,1.2     c2.7-1.3-1.7,0.6-2.6,0.9c-3.4,1.2-6.9,2.1-10.4,2.7c-0.7,0.1-1.3,0.2-2,0.3c-2.7,0.5,4-0.3,1.2-0.2c-1.6,0.1-3.2,0.3-4.9,0.3     c-1.2,0-2.4,0-3.5,0.1c-2.4,0-4.8,0-7.3,0c-8.9,0-17.8,0-26.7,0c-19.3,0-39.4-1.5-57.8,5.3c-13.9,5.1-26.2,12.7-36.8,23.2     c-4.8,4.8-9.6,9.6-14.5,14.5c-10.7,10.7-21,22.4-32.6,32.3c-0.6,0.5-1.1,0.9-1.7,1.4c-2.1,1.8,2.9-2,0.6-0.5     c-1.4,0.9-2.7,1.9-4.1,2.8c-1.4,0.9-2.8,1.7-4.3,2.5c-0.8,0.4-1.7,0.9-2.5,1.3c-1.7,0.8-3.4,0.5,0.3,0c-3,0.4-6.2,2.3-9.2,3     c-1.6,0.4-3.1,0.8-4.7,1.1c-0.9,0.2-1.8,0.3-2.7,0.5c-2.6,0.5,5.1-0.4,0.6-0.1c-3.2,0.2-6.4,0.4-9.6,0.3     c-1.6-0.1-3.2-0.2-4.8-0.3c-2.3-0.1,1.9,0.3,1.9,0.3c-1.1-0.3-2.3-0.4-3.4-0.6c-3.4-0.7-6.7-1.5-10-2.7c-0.8-0.3-5.5-2.3-2.8-1     c2.5,1.3-2.3-1.2-3.3-1.7c-1.1-0.6-8.4-5.9-9-5.6c0.1,0,2.9,2.4,1.2,0.9c-0.7-0.6-1.5-1.2-2.2-1.9c-1.3-1.1-2.5-2.3-3.8-3.5     c-1.1-1.1-2.1-2.1-3.2-3.2c-5.9-5.9-11.9-11.9-17.8-17.8c-12.6-12.6-24.9-27-40.2-36.4c-14.8-9.1-32.1-13.7-49.4-13.8     c-5.6,0-11.2,0-16.8,0c-14.9,0-29.8,0.1-44.6,0c-2.6,0-5.9-0.9-8.4-0.5c0,0,4.1,0.7,1.9,0.3c-0.9-0.2-1.8-0.3-2.7-0.5     c-1.8-0.3-3.5-0.8-5.3-1.2c-1.5-0.4-3-0.9-4.5-1.4c-0.8-0.3-1.7-0.6-2.5-0.9c-2.9-1,0.9,0.6,1.1,0.5c-1.1,0.6-7.6-3.9-8.7-4.6     c-1.3-0.8-2.6-1.6-3.8-2.5c-0.4-0.3-2-1.2-2.1-1.5c-0.1-0.2,3.1,2.7,1.5,1.1c-2.5-2.4-5.2-4.6-7.6-7.2c-0.5-0.5-3.2-3-3-3.5     c0,0,2.9,4.1,0.7,0.9c-0.4-0.5-0.8-1.1-1.1-1.6c-2-2.9-3.8-5.9-5.3-9.1c-0.3-0.6-0.6-1.2-0.9-1.8c-1.7-3.4,0.4,1.1,0.4,1.1     c-0.7-0.3-1.3-3.6-1.6-4.4c-1.1-3.4-2-6.9-2.6-10.5c-0.8-4.7,0.1,2.8-0.1-0.8c-0.1-1.6-0.2-3.2-0.3-4.9c0-0.9,0-1.9,0-2.8     c0-6.6,0-13.2,0-19.8c0-15.2,0.8-30.6-0.2-45.8c-1.2-18.3-7.1-36.4-18.2-51c-4.9-6.4-10.2-12-15.9-17.7     c-11.8-11.8-23.7-23.7-35.5-35.5c-2.1-2.1-4.1-4.2-6-6.4c-3-3.6,1.1,1.8-0.8-1.1c-0.9-1.4-1.9-2.7-2.7-4.2     c-0.9-1.4-1.7-2.8-2.4-4.3c-0.4-0.8-0.8-1.7-1.2-2.5c-1.2-2.4,0.2-0.2,0.3,0.9c-0.4-3.2-2.4-6.7-3.2-9.9c-0.4-1.6-0.7-3.1-1-4.7     c-0.2-0.9-0.2-1.9-0.4-2.7c0.3,1.1,0.4,4,0.2,1.2c-0.2-3.4-0.4-6.8-0.2-10.3c0-0.7-0.1-4.6,0.4-4.8c0,0-0.9,5.2-0.2,1.2     c0.2-0.9,0.3-1.8,0.5-2.7c0.6-3.2,1.5-6.3,2.5-9.3c0.3-0.9,0.6-1.7,0.9-2.6c0.8-2.2,1.2-0.5-0.4,0.9c1.1-1,1.8-3.7,2.5-5     c0.5-1,5.6-7.7,5.3-8.4c0.3,0.6-2.5,2.9-0.5,0.6c0.6-0.7,1.2-1.5,1.9-2.2c1-1.1,2-2.2,3-3.2c3.7-3.8,7.5-7.5,11.2-11.2     c10.7-10.7,21.5-21.3,32.1-32.1c11.9-12.1,20.8-27.2,24.9-43.7c2.4-9.6,3-19.4,3-29.2c0-17,0-34,0-51c0-1.6,0-3.2,0-4.8     c0-2.7,0.8-5.8,0.5-8.4c0.4,3.4-0.5,3.1-0.1,1.2c0.2-0.9,0.3-1.8,0.5-2.7c0.4-1.8,0.8-3.5,1.3-5.2c0.4-1.5,0.9-3,1.4-4.5     c0.3-0.8,0.7-1.7,0.9-2.5c0.7-2.2-0.7,1.9-0.7,1.7c-0.7-1.1,4.2-8.2,4.9-9.3c0.8-1.3,1.7-2.5,2.6-3.8c2.8-4-1.9,2,0.5-0.6     c2.3-2.6,4.7-5.2,7.3-7.5c0.7-0.6,3.8-4.1,2-1.8c-1.3,1.7-0.8,0.6,0.1,0c0.7-0.5,1.4-1,2.1-1.5c2.9-2,6-3.7,9.1-5.3     c0.6-0.3,1.2-0.5,1.8-0.8c2.3-1.3-3.7,1.2-1.1,0.5c1.5-0.4,2.9-1.1,4.4-1.6c3.4-1.1,6.9-1.9,10.5-2.5c3.6-0.7-4.3,0.4,0.8,0     c1.6-0.1,3.2-0.2,4.9-0.2c0.8,0,1.5,0,2.3,0c2.5,0,5,0,7.5,0c16.9,0,33.7,0,50.6,0c26.8,0,51.6-9.7,70.6-28.7     c11.6-11.6,23.2-23.2,34.8-34.8c4.3-4.3,8.5-8.7,13.1-12.6c2.7-2.3-3,2.1,1.1-0.8c1.4-0.9,2.8-1.8,4.2-2.7     c1.4-0.8,2.9-1.6,4.3-2.4c0.8-0.4,1.7-0.8,2.5-1.2c2.4-1.3-3.5,1.3-0.9,0.4c3.3-1.2,6.5-2.3,9.9-3.1c1.6-0.4,3.1-0.7,4.7-1     c0.7-0.1,1.4-0.2,2-0.3c-4.7,1.3-2.1,0.3-0.5,0.2c3.4-0.3,6.8-0.3,10.3-0.1c0.7,0,1.4,0.1,2.1,0.1c1,0.1,3.5-0.4,0.7,0     c-2.2,0.3-1.1-0.2,0.1,0c1.1,0.2,2.3,0.4,3.4,0.6c3.4,0.7,6.7,1.7,9.9,2.8c0.7,0.2,1.3,0.5,1.9,0.7c2.6,0.9-3.4-1.6-0.9-0.4     c1.7,0.9,3.4,1.6,5,2.5c1.4,0.8,2.9,1.6,4.2,2.5c0.8,0.5,4.8,3.2,2.6,1.7c-2.3-1.6,1.8,1.6,2.5,2.1c1.1,1,2.2,2,3.2,3.1     c1.2,1.2,2.4,2.4,3.6,3.6c12,12,24,24,36,36c7,7,14.4,13.6,23,18.6c14.6,8.5,31.3,12.9,48.2,13c15.3,0.1,30.6,0,45.8,0     c5.2,0,10.3,0,15.5,0c1.4,0,2.8,0,4.2,0.1c1.1,0.1,5.8,0,2.8,0.2c-3,0.2,1.7,0.3,2.7,0.5c2,0.4,4,0.9,5.9,1.5     c1.5,0.4,3,0.9,4.5,1.4c0.4,0.1,2.4,0.7,2.5,0.9c0.1,0.2-3.7-1.8-1.7-0.7c3.1,1.7,6.3,3.1,9.3,5c1.3,0.8,2.5,1.7,3.8,2.6     c2.9,2-2.8-2.5,0.6,0.5c2.6,2.3,5.1,4.7,7.5,7.3c0.4,0.5,0.8,1,1.3,1.5c2.5,2.8-0.6-1-0.7-1c0.8,0.2,2.3,3.2,2.6,3.7     c1.8,2.7,3.5,5.6,4.9,8.6c0-0.1,1.2,2.2,1.1,2.4c0,0-1.8-4.7-0.5-1.1c0.5,1.5,1.1,2.9,1.5,4.4c1,3.2,1.7,6.5,2.3,9.9     c0.7,3.9-0.1-1.2-0.1-1.2c0.2,0.1,0.3,2.9,0.3,2.8c0.1,1.6,0.2,3.3,0.2,4.9c0,0.6,0,1.1,0,1.7c0,16.3,0,32.5,0,48.8     c0,6-0.2,12.1,0.3,18.1c1.6,18.9,8,36.5,19.6,51.5c10.1,13,22.9,24.2,34.5,35.8c5.2,5.2,10.3,10.3,15.5,15.5     c2.2,2.2,4.3,4.4,6.3,6.8c2.4,2.9-0.2-0.4-0.5-0.6c0.5,0.3,1.4,2,1.6,2.3c0.9,1.4,1.8,2.8,2.6,4.2c0.8,1.4,1.6,2.9,2.3,4.3     c0.3,0.6,0.8,2.2,1.2,2.5c-0.7-0.6-1.4-3.6-0.4-0.9c1.2,3.3,2.2,6.5,3,9.9c0.4,1.6,0.7,3.1,0.9,4.7c0.7,3.6-0.4-4.3,0,0.8     c0.3,3.2,0.3,6.4,0.2,9.6c-0.1,1.4-0.6,3.3-0.4,4.8c-0.5-3.4,0.5-3.1,0.2-1.2c-0.2,0.9-0.3,1.8-0.5,2.7c-0.6,3.2-1.5,6.3-2.5,9.3     c-0.3,0.9-2.2,5.3-1,2.8c1.4-2.7-1,2-1.4,2.7c-1.6,3.2-3.7,6-5.6,9c-1.2,1.8,0.8-1.1,1-1.2c-0.3,0-1.5,1.9-1.8,2.2     C851.8,447.2,850.5,448.6,849.1,450c-7.3,7.5-8,20.9,0,28.3c7.9,7.3,20.5,8,28.3,0c23.8-24.3,33.5-59.9,24.3-92.8     c-4.4-15.6-12.9-29.9-24.3-41.5c-3.9-4-7.9-7.9-11.9-11.9c-10.5-10.5-21.1-20.9-31.6-31.5c-1.3-1.3-2.6-2.7-3.8-4.1     c-0.4-0.5-2.5-3.1-0.9-1.1c1.5,1.9-0.1-0.2-0.3-0.5c-2.4-3.5-4.4-7.1-6.4-10.9c-1.7-3.3-0.2-0.1,0.1,0.4c-0.5-0.9-0.8-2.1-1.1-3     c-0.6-1.7-1.2-3.5-1.6-5.3c-0.5-1.8-0.9-3.6-1.3-5.4c-0.1-0.7-0.7-2.5-0.5-3.1c0.1,0.7,0.2,1.4,0.3,2.2c-0.1-0.8-0.2-1.6-0.2-2.4     c-0.5-6-0.2-12.1-0.2-18.2c0-16.2,0.1-32.3,0-48.5c-0.2-30.9-14.7-58.7-39.2-77.2c-19.1-14.4-41.5-18.2-64.8-18.2     c-16.9,0-33.8,0-50.7,0c-0.6,0-1.1,0-1.7,0c-0.8,0-1.7,0-2.5,0c-0.8,0-1.6-0.1-2.4-0.1c-0.8,0-1.6-0.1-2.4-0.2     c-1.5-0.2-1.1-0.1,1.4,0.2c-2.7,0.7-8.2-1.7-10.8-2.5c-1.8-0.5-3.5-1.2-5.2-1.8c-2.7-0.9,3,1.5,0.4,0.2c-1.2-0.6-2.4-1.1-3.5-1.8     c-3.3-1.7-6.3-3.8-9.4-5.9c3.7,2.5-1.1-1-2.1-1.9c-0.8-0.7-1.6-1.5-2.4-2.3c-1.3-1.3-2.7-2.7-4-4C606.3,73,594.2,60.8,582,48.6     c-19.1-19.1-43.9-31.1-71.3-30.6c-16.8,0.3-33.8,5-48.2,13.9c-8,4.9-14.8,11.1-21.4,17.7c-12.2,12.2-24.4,24.4-36.6,36.6     c-1.2,1.2-2.4,2.4-3.6,3.6c-1.3,1.3-2.8,2.5-4.2,3.8c-0.7,0.6-3,2.1,0.3-0.2c-0.7,0.5-1.3,0.9-1.9,1.4c-3.5,2.4-7.2,4.3-11,6.3     c-2.5,1.4,3.2-1.1,0.4-0.2c-0.7,0.3-1.5,0.6-2.2,0.8c-2,0.7-4,1.3-6,1.9c-1.8,0.5-3.6,0.9-5.4,1.2c-0.7,0.1-4.1,0.5-1.3,0.2     c3.1-0.3-2,0.1-2.1,0.1c-2.5,0.2-5.1,0.2-7.6,0.2c-17.1,0-34.3,0-51.4,0c-8.7,0-17.1,0.3-25.7,1.9c-15.9,2.8-30.4,10.6-42.9,20.7     c-21.9,17.8-33.6,45.7-33.6,73.7c0,16.7,0,33.4,0,50.1c0,2.9,0,5.7,0,8.6c0,0.5,0,1,0,1.5c0,1.1,0,2.2-0.1,3.3     c0,1.1-0.1,2.1-0.2,3.2c-0.2,2.7,0.4,0.6,0.2-0.6c0.7,2.9-1.8,8.7-2.7,11.6c-0.5,1.5-0.9,3.9-1.9,5.2c2.1-2.8,0.8-1.6,0.1-0.4     c-0.6,1.2-1.2,2.4-1.8,3.5c-0.9,1.6-1.8,3.2-2.8,4.8c-0.7,1.1-4.4,5.8-1.5,2.4c-1.8,2.1-3.5,4.1-5.4,6.1c-10.9,11.1-22,22-33,33     c-3.8,3.8-7.7,7.5-11.4,11.4c-11.6,12.1-20.3,27.4-24.1,43.8c-7.5,32.2,2,66,25.2,89.5c10.9,11.1,22,22,33,33     c3.8,3.8,7.7,7.6,11.5,11.5c1.3,1.4,2.5,2.8,3.7,4.2c1.5,1.7-0.5-0.7-0.7-0.9c0.6,0.9,1.2,1.7,1.8,2.6c2.1,3.1,5.4,7.3,6.2,11.1     c-0.1-0.6-1.5-4-0.2-0.4c0.3,0.7,0.5,1.5,0.8,2.2c0.7,2,1.3,4,1.8,6.1c0.4,1.8,0.8,3.6,1.2,5.4c0.6,2.8,0.7,0.2-0.1-0.6     c0.4,0.4,0.2,2.6,0.3,3.2c1,15.5,0.2,31.2,0.2,46.8c0,6.4,0,12.8,0,19.2c0.1,14.8,3.5,28.7,9.7,42.1     c13.9,29.8,43.5,48.7,75.5,52.6c15.7,1.9,32.1,0.6,47.9,0.6c7.3,0,14.6,0,21.9,0c0.5,0,1,0,1.4,0c1.3,0,2.7,0,4,0.1     c0.8,0,1.6,0.1,2.4,0.2c5.1,0.3-2.6-0.6,0.2,0c3.9,0.8,7.7,1.6,11.5,2.8c1,0.3,2,0.7,3,1.1c0.4,0.1,2.8,1.2,0.5,0.2     c-2.4-1.1,0.6,0.3,1.2,0.6c1.2,0.6,2.4,1.2,3.5,1.8c1.6,0.9,3.2,1.9,4.7,2.9c1.3,0.9,4.6,3.6,1.7,1.1c2.1,1.8,4.1,3.6,6.1,5.5     c1.5,1.4,2.9,2.9,4.3,4.3c6.3,6.3,12.7,12.7,19,19c13.1,13.1,25.8,28,42.5,36.6c29.6,15.4,66.3,14.8,94.8-3.2     c15.2-9.6,27.5-24,40.1-36.6c5.9-5.9,11.8-11.8,17.7-17.7c1.3-1.3,2.5-2.5,3.8-3.8c1.5-1.5,3.2-2.9,4.8-4.2     c-3,2.5,0.5-0.3,1.7-1.1c1.5-1,3.1-2,4.7-2.9c0.9-0.5,1.9-1,2.8-1.5c0.5-0.3,4.5-2.2,1.9-1c-2.4,1.1,0.7-0.2,1.3-0.5     c0.7-0.3,1.5-0.5,2.2-0.8c2-0.7,4-1.2,6.1-1.7c1.8-0.4,3.6-0.7,5.4-1.1c2.4-0.5-1.4,0.2-1.4,0.2c0.4-0.4,4.2-0.3,4.8-0.4     c2.2-0.1,4.3-0.1,6.5-0.1c8.2,0,16.3,0,24.5,0c17.7,0,36,1.3,53.5-2.1c31.8-6.2,57.3-29.9,69.1-59.6c7.2-18.1,6.1-37.6,6.1-56.6     c0-9.4,0-18.9,0-28.3c0-2.8,0-5.7,0-8.5c0-0.4,0-0.8,0-1.3c0-1.6,0.1-3.2,0.2-4.8c0.1-0.8,0.2-1.6,0.2-2.4c0.1-2.5-0.7,3.6,0-0.2     c0.8-3.9,1.7-7.7,2.9-11.5c0.3-0.7,0.5-1.5,0.8-2.2c1.3-3.6-0.1-0.2-0.2,0.4c0.5-2.1,2.2-4.5,3.2-6.3c0.9-1.6,1.9-3.2,2.9-4.7     c0.6-0.9,1.2-1.7,1.8-2.6c-0.1,0.2-2.2,2.6-0.7,0.9c1.7-1.8,3.3-3.7,5-5.5c4.3-4.4,8.7-8.7,13-13c10.1-10.1,20.2-20.2,30.3-30.3     c7.4-7.4,8-21,0-28.3C869.4,442.7,857,442.1,849.1,450z" id="XMLID_28_"/></g></g><g id="XMLID_2868_"><g id="XMLID_18_"><path d="M662.8,411.1c0,4.4-0.2,8.8-0.5,13.2c-0.2,2.1-0.4,4.1-0.6,6.2c-0.1,0.6-0.1,2.1-0.3,2.7     c0.4-3.1,0.5-3.5,0.1-1.3c-0.1,0.4-0.1,0.9-0.2,1.3c-1.4,8.4-3.4,16.8-6,24.9c-1.3,4-2.9,7.9-4.3,11.9c-1,2.8,2.1-4.6,0.2-0.5     c-0.4,0.8-0.7,1.6-1.1,2.4c-0.9,2-1.9,4-2.9,5.9c-3.8,7.4-8,14.6-12.8,21.4c-1,1.4-2.4,4.3-3.9,5.3c2.2-1.5,2-2.5,0.7-1     c-0.7,0.8-1.4,1.7-2.1,2.5c-2.8,3.3-5.7,6.6-8.7,9.7c-2.7,2.8-5.5,5.5-8.5,8.1c-1.5,1.3-2.9,2.6-4.4,3.9c-0.7,0.6-1.3,1.1-2,1.7     c-0.7,0.5-1.4,1.1-2,1.6c2.2-1.7,2.6-2,1.5-1.1c-6.8,4.8-13.5,9.5-20.9,13.5c-3.5,1.9-7,3.7-10.6,5.4c-1,0.5-2,0.9-3,1.4     c-2.3,1,0,0.9,1.1-0.5c-1,1.2-5.4,2.1-6.8,2.6c-8,2.9-16.2,5.2-24.6,6.8c-2,0.4-4,0.8-6,1.1c0,0-2.5,0.6-2.7,0.4     c1.5,0.9,4.1-0.5,0.6-0.1c-4.6,0.5-9.2,0.9-13.8,1.1c-8.8,0.3-17.7,0-26.4-1.1c-3.5-0.4-0.9,1,0.6,0.1c-0.2,0.2-2.7-0.4-2.7-0.4     c-2.2-0.4-4.5-0.8-6.7-1.2c-4.2-0.9-8.3-1.9-12.4-3c-4.1-1.2-8.1-2.5-12.1-3.9c-1.7-0.6-3.3-1.3-5-1.9c-4.2-1.6,3.1,1.5,0.5,0.2     c-1.2-0.6-2.4-1.1-3.6-1.6c-7.6-3.5-14.9-7.5-21.8-12.1c-1.6-1.1-3.3-2.2-4.9-3.3c-1.3-0.9-4.4-2.5-5.3-3.9c0.2,0.3,3.7,3,1,0.7     c-0.7-0.6-1.4-1.1-2-1.6c-2-1.7-4-3.4-5.9-5.1c-6.1-5.5-11.9-11.5-17.1-17.9c-0.6-0.7-1.1-1.4-1.6-2c-2.3-2.8,0.5,0.8,0.7,1     c-1.4-0.9-2.9-3.9-3.9-5.3c-2.5-3.6-4.9-7.2-7.1-11c-2-3.4-3.9-6.8-5.7-10.4c-0.8-1.6-1.6-3.2-2.3-4.7c-0.6-1.2-1.1-2.4-1.6-3.6     c-1.7-3.6,1.5,3.9,0-0.1c-3-7.9-5.7-15.9-7.7-24.2c-0.9-4-1.7-8-2.4-12c-0.1-0.9-0.2-1.8-0.4-2.7c1.2,4.9,0.3,2.1,0.1,0.6     c-0.3-2.5-0.5-5-0.7-7.6c-0.6-8.8-0.6-17.7,0.1-26.5c0.1-1.8,0.3-3.7,0.5-5.5c0.1-0.5,0.1-0.9,0.2-1.4c0.3-2.2,0.2-1.8-0.2,1.2     c-0.2-0.2,0.4-2.7,0.4-2.7c0.7-4.5,1.6-8.9,2.7-13.3c1-3.9,2.1-7.8,3.3-11.6c0.6-1.9,1.3-3.8,1.9-5.7c0.5-1.3,1.5-6,2.6-6.8     c-0.2,0.1-2,4.5-0.5,1.1c0.5-1,0.9-2,1.4-3c0.8-1.8,1.7-3.6,2.6-5.3c2-3.9,4.1-7.7,6.4-11.5c2-3.4,4.2-6.7,6.5-9.9     c1.1-1.6,2.4-3.1,3.5-4.7c1.7-2.4-3.1,3.8-0.3,0.4c0.8-1,1.6-2,2.5-3c5.3-6.3,11.1-12.3,17.3-17.8c1.5-1.3,2.9-2.6,4.5-3.8     c0.8-0.7,1.7-1.4,2.5-2.1c1.6-1.3,0.5-1.5-1,0.7c0.9-1.3,3.5-2.6,4.7-3.5c2-1.4,3.9-2.7,6-4c7-4.5,14.3-8.6,21.9-12     c0.8-0.4,1.6-0.7,2.4-1.1c4.1-1.9-3.3,1.2-0.5,0.2c1.9-0.7,3.7-1.5,5.6-2.2c4.2-1.5,8.4-2.9,12.7-4.1c3.9-1.1,7.8-2,11.8-2.8     c2.2-0.5,4.5-0.9,6.7-1.2c0.9-0.1,1.8-0.2,2.7-0.4c-5.3,1.3-1.3,0.2,0.1,0c8.8-1,17.6-1.3,26.4-1c4.2,0.2,8.3,0.5,12.4,1     c0.6,0.1,4.6,1.1,1.4,0.2c-3.2-1,0.8,0.2,1.4,0.2c2.2,0.4,4.5,0.8,6.7,1.2c8.3,1.7,16.5,4,24.5,6.9c1.4,0.5,5.4,1.3,6.2,2.4     c-0.1-0.2-4.5-2-1.1-0.5c0.8,0.4,1.6,0.7,2.4,1.1c4,1.8,7.9,3.8,11.8,5.9c3.4,1.9,6.8,3.9,10.1,6.1c1.8,1.2,3.6,2.4,5.4,3.7     c1.5,1,4.3,2.4,5.3,3.9c-1.9-3-2.1-1.7-0.5-0.3c0.8,0.7,1.7,1.4,2.5,2.1c1.3,1.1,2.7,2.3,3.9,3.4c3.2,2.9,6.4,5.9,9.4,9     c2.7,2.8,5.3,5.7,7.9,8.7c0.7,0.8,1.4,1.7,2.1,2.5c1.4,1.7,2.7,1.5-0.3-0.5c1.6,1,2.8,3.7,3.9,5.3c4.8,6.8,9.1,13.9,12.8,21.4     c1,2,1.9,3.9,2.9,5.9c0.4,0.8,0.7,1.6,1.1,2.4c1.5,3.4-0.3-1-0.5-1.1c1,0.7,2,5,2.4,6.2c0.8,2.1,1.5,4.2,2.2,6.3     c2.6,8.1,4.6,16.5,6,24.9c0.1,0.6,1.2,4.6,0.2,1.4c-1-3.2,0.1,0.8,0.2,1.4c0.2,1.8,0.4,3.7,0.5,5.5     C662.6,401.8,662.8,406.5,662.8,411.1c0,10.5,9.2,20.5,20,20c10.8-0.5,20-8.8,20-20c-0.2-38.8-11.9-77.8-34.6-109.5     c-23.1-32.3-54.8-56.5-92.1-70.2c-73.6-27-160.7-3.2-210.4,57.4c-25.5,31.1-40.7,68.3-43.9,108.4c-3.2,38.9,6.6,79.1,26.8,112.5     c19.6,32.2,49,59.2,83.5,74.6c37.5,16.8,78.5,21.6,118.8,13.6c75.5-15.1,137.4-79.1,149.2-155.3c1.6-10.5,2.7-20.9,2.7-31.5     c0-10.5-9.2-20.5-20-20C671.9,391.6,662.9,399.9,662.8,411.1z" id="XMLID_22_"/></g></g><g id="XMLID_2914_"><g id="XMLID_12_"><path d="M648.2,697c0,32.6,0,65.2,0,97.8c0,51.9,0,103.8,0,155.7c0,11.8,0,23.7,0,35.5     c8.4-6.4,16.9-12.9,25.3-19.3c-45.8-18.7-91.6-37.4-137.4-56.1c-6.1-2.5-12.3-5.5-18.6-7.6c-8.1-2.6-15.6,1.9-22.7,4.8     c-26.7,10.9-53.3,21.8-80,32.6c-21.4,8.8-42.9,17.5-64.3,26.3c8.4,6.4,16.9,12.9,25.3,19.3c0-32.6,0-65.2,0-97.8     c0-51.9,0-103.8,0-155.7c0-11.8,0-23.7,0-35.5c-6.7,6.7-13.3,13.3-20,20c2.1,0,4.1,0,6.2,0c1.3,0,2.5,0,3.8,0.1     c1.1,0,2.1,0.2,3.2,0.2c5.2,0.3-4.1-0.9,1,0.1c4.4,0.8,8.8,1.9,13,3.5c1.2,0.5,4.5,1,0.3,0.1c0.9,0.2,2.1,1,2.9,1.4     c2.4,1.2,4.7,2.5,6.9,3.9c1.3,0.8,5.6,4.2,2.4,1.5c1.8,1.5,3.7,3.1,5.4,4.8c0.6,0.6,1.1,1.1,1.7,1.7c2.5,2.5,5,5,7.4,7.4     c7.9,7.9,15.7,15.7,23.6,23.6c5.4,5.4,10.7,11.3,16.7,16.2c31,25.6,75,30.5,110,9.7c9.4-5.6,17.3-13.1,24.9-20.8     c7.7-7.7,15.4-15.4,23.1-23.1c6.4-6.4,12.8-12.9,19.5-19c2.3-2.1-3.9,2.5,0.4-0.3c1.1-0.7,2.2-1.5,3.3-2.2     c2.2-1.4,4.5-2.7,6.9-3.9c1-0.5,4.1-2.3,0.3-0.2c1.1-0.6,2.5-1,3.7-1.4c2.5-0.9,5-1.6,7.6-2.2c1.3-0.3,2.6-0.5,3.9-0.8     c3.8-0.8-2.3,0.1,0.2,0c2.4-0.1,4.8-0.3,7.3-0.4c2.2,0,4.5,0,6.7,0c10.5,0,20.5-9.2,20-20c-0.5-10.8-8.8-20-20-20     c-18.4,0-35.6,2.8-52,11.5c-10.4,5.5-19.1,13.5-27.3,21.7c-12.7,12.7-25.2,25.5-38,38c-1.1,1-2.1,2.1-3.2,3     c-0.7,0.6-1.5,1.3-2.2,1.9c-3.5,3.1,2.5-1.6,0.1-0.1c-3.8,2.4-7.5,4.7-11.6,6.8c-1.4,0.8-1.9,1.8,0.9-0.3c-0.6,0.4-2,0.8-2.6,1     c-1.7,0.6-3.5,1.2-5.3,1.7c-2,0.6-4,1-6,1.4c-0.7,0.1-2.8,0.9-3.4,0.6c1,0.5,4.4-0.5,0.5-0.2c-3.9,0.3-7.8,0.3-11.6,0.1     c0.1,0-2.7-0.1-2.7-0.2c0.3,0.7,4.6,0.7,0.6,0c-2.3-0.4-4.5-0.9-6.7-1.5c-2-0.5-4-1.2-5.9-1.9c-0.7-0.3-1.9-0.9-2.6-1     c0.5,0.1,4.1,1.9,0.9,0.3c-3.8-1.9-7.4-4.1-11-6.4c-3.9-2.5,2.3,2,0,0.1c-0.7-0.6-1.5-1.2-2.2-1.9c-1.3-1.1-2.5-2.3-3.8-3.5     c-0.5-0.5-0.9-0.9-1.4-1.4c-2.7-2.7-5.4-5.4-8-8c-7.9-7.9-15.8-15.8-23.7-23.7c-8.3-8.3-16.3-16.5-26.1-23     c-17.5-11.5-37.5-15.1-58.1-15.1c-10.8,0-20,9.2-20,20c0,32.6,0,65.2,0,97.8c0,51.9,0,103.8,0,155.7c0,11.8,0,23.7,0,35.5     c0,11.7,13,24.3,25.3,19.3c45.6-18.6,91.2-37.2,136.8-55.8c6.5-2.6,13-5.3,19.4-7.9c-3.5,0-7.1,0-10.6,0     c45.6,18.6,91.2,37.2,136.8,55.8c6.5,2.6,13,5.3,19.4,7.9c12.3,5,25.3-7.6,25.3-19.3c0-32.6,0-65.2,0-97.8     c0-51.9,0-103.8,0-155.7c0-11.8,0-23.7,0-35.5c0-10.5-9.2-20.5-20-20C657.4,677.5,648.2,685.8,648.2,697z" id="XMLID_16_"/></g></g></g></svg>