<?xml version="1.0" encoding="utf-8"?>
<!-- Generator: Adobe Illustrator 25.3.1, SVG Export Plug-In . SVG Version: 6.00 Build 0)  -->
<svg version="1.1" id="Layer_1" xmlns:serif="http://www.serif.com/"
	 xmlns="http://www.w3.org/2000/svg" xmlns:xlink="http://www.w3.org/1999/xlink" x="0px" y="0px" viewBox="0 0 500 500"
	 style="enable-background:new 0 0 500 500;" xml:space="preserve">
<style type="text/css">
	.st0{fill:none;}
</style>
<rect id="recomendation-medal-badge-top" class="st0" width="500" height="500"/>
<path d="M134.4,219.1c-4-9.5-6.8-19.5-8.2-29.8c-5.5-39.2,8.9-80.6,37.6-107.9c22.8-21.7,53.5-34.2,85.5-34.5c0.5,0,1.1,0,1.6,0
	c45.5,0.4,89.8,27.6,110.5,68.1c17.5,34.2,18,76.5,1.4,111.1c-18,37.3-56.1,63.4-97.6,69.1l65,112.6l24.6-37.2c0,0,5.7-6.4,12.1-7
	l44.5-2.7l-44.2-76.5c0,0-3.4-7.6-1-13.7c2-5.1,6.9-8.9,12.3-9.6c2.1-0.3,2.6-0.1,3.3-0.1c5.1,0.5,9.7,3.3,12.5,7.8l56.8,98.4
	c1.7,3.2,1.8,4.2,2,6.2c0.8,7.6-4.8,15.4-12.4,16.9c-1,0.2-1.2,0.2-2.2,0.3l-62,3.7l-34.2,51.8c0,0-5.4,6.5-11.9,7
	c-5.1,0.4-10.3-1.9-13.5-6c-0.6-0.8-0.7-1-1.2-1.8l-86.9-150.4c-9.1-1.4-18.1-3.9-26.8-7.6c-19.3-8-36.2-21.2-49.3-37.5l-64.1,111
	l44.5,2.7c0,0,8.5,2,12.1,7l24.6,37.2l35.4-61.2c0,0,13.1-13.1,23.7-4.1c4.9,4.2,6.8,11.6,4.4,17.6c-0.4,1-0.5,1.2-1,2.1l-48,83.1
	c-2,3.1-2.9,3.8-4.6,5c-6.2,4.3-15.5,3.3-20.6-2.4c-0.7-0.8-0.8-1-1.4-1.8l-34.2-51.8l-62-3.7c0,0-19.2-7.2-13.6-21.4
	c0.4-0.9,0.5-1.2,1-2L134.4,219.1L134.4,219.1z M249.4,78.1c-42.8,0.4-82.6,32.8-91.3,74.9c-6.3,30.6,4,64.1,26.4,86
	c25.9,25.3,66.9,33.7,100.9,19.8c30-12.3,52.7-41.1,57.4-73.1c5.8-39.5-16.8-81.7-53.2-98.7C277,81,263.3,78,249.4,78.1z"/>
</svg>
