<?xml version="1.0" ?><svg viewBox="0 0 48 48" xmlns="http://www.w3.org/2000/svg"><title/><path d="M37.45,6.35a1,1,0,0,0-1.05.09c-4,3-9.18,1.59-14.21.24-4.45-1.2-8.65-2.33-11.74-.27a1,1,0,0,0-.45.83v34a1,1,0,0,0,2,0V25.85c2.36-1.19,5.91-.26,9.67.76a35.59,35.59,0,0,0,9,1.6,11.25,11.25,0,0,0,7-2.17,1,1,0,0,0,.4-.8v-18A1,1,0,0,0,37.45,6.35ZM36,24.73c-3.93,2.61-8.95,1.26-13.81-.05a30.55,30.55,0,0,0-7.53-1.41,8.32,8.32,0,0,0-2.66.39V7.82c2.36-1.18,5.92-.22,9.67.79C26.34,9.86,31.55,11.27,36,9Z" fill="#646464"/></svg>