<svg width="165" height="168" viewBox="0 0 165 168" fill="none" xmlns="http://www.w3.org/2000/svg">
<path d="M61.6285 31.564C68.121 14.9019 71.3672 6.57086 76.0389 4.14055C80.0887 2.03375 84.9113 2.03375 88.9611 4.14055C93.6328 6.57086 96.879 14.9019 103.372 31.564L105.104 36.0111C106.916 40.661 107.822 42.986 109.328 44.7673C110.659 46.3426 112.322 47.6043 114.198 48.462C116.319 49.4319 118.803 49.6777 123.769 50.1695L131.592 50.9441C146.993 52.4691 154.694 53.2316 158.227 56.7414C161.297 59.7918 162.784 64.0906 162.254 68.386C161.645 73.3283 156.06 78.6854 144.892 89.3996L136.094 97.8396C132.828 100.973 131.195 102.539 130.164 104.414C129.251 106.073 128.685 107.9 128.499 109.785C128.288 111.914 128.749 114.129 129.669 118.561L131.754 128.594C135.202 145.195 136.927 153.495 134.442 158.022C132.287 161.95 128.381 164.609 123.936 165.175C118.813 165.827 111.723 161.179 97.5425 151.885L94.7794 150.073C90.337 147.162 88.1157 145.706 85.72 145.14C83.6025 144.639 81.3975 144.639 79.28 145.14C76.8843 145.706 74.663 147.162 70.2206 150.073L67.4575 151.885C53.2768 161.179 46.1865 165.827 41.0638 165.175C36.6189 164.609 32.7132 161.95 30.5575 158.022C28.0731 153.495 29.7975 145.195 33.2464 128.594L35.3309 118.56C36.2514 114.129 36.7117 111.914 36.5014 109.785C36.3153 107.9 35.7487 106.073 34.8361 104.414C33.805 102.539 32.1721 100.973 28.9061 97.8396L20.1083 89.3996C8.93973 78.6854 3.35544 73.3283 2.74605 68.386C2.21644 64.0906 3.70319 59.7918 6.77332 56.7414C10.3059 53.2316 18.0066 52.4691 33.4082 50.9441L41.2313 50.1695C46.1974 49.6777 48.6805 49.4319 50.8017 48.462C52.6776 47.6043 54.3407 46.3426 55.6723 44.7673C57.1779 42.986 58.0838 40.661 59.8957 36.0111L61.6285 31.564Z" fill="#C4A507" stroke="black" stroke-width="5"/>
</svg>
