<svg width="18" height="17" viewBox="0 0 18 17" fill="none" xmlns="http://www.w3.org/2000/svg">
<path d="M9 7.93327C10.6569 7.93327 12 6.66474 12 5.09993C12 3.53513 10.6569 2.2666 9 2.2666C7.34315 2.2666 6 3.53513 6 5.09993C6 6.66474 7.34315 7.93327 9 7.93327Z" fill="#63469D"/>
<path d="M15 12.4666V13.6C15 13.7503 14.9368 13.8944 14.8243 14.0007C14.7117 14.1069 14.5591 14.1666 14.4 14.1666H3.6C3.44087 14.1666 3.28826 14.1069 3.17574 14.0007C3.06321 13.8944 3 13.7503 3 13.6V12.4666C3 11.5649 3.37928 10.7001 4.05442 10.0625C4.72955 9.42486 5.64522 9.06665 6.6 9.06665H11.4C12.3548 9.06665 13.2705 9.42486 13.9456 10.0625C14.6207 10.7001 15 11.5649 15 12.4666V12.4666Z" fill="#63469D"/>
</svg>
