<svg width="18" height="17" viewBox="0 0 18 17" fill="none" xmlns="http://www.w3.org/2000/svg">
<path d="M6.43576 13.9276C6.16583 13.9276 5.89594 13.8304 5.69 13.6359C5.27814 13.2469 5.27814 12.6162 5.69 12.2272L15.0745 3.36402C15.4864 2.97501 16.1542 2.97501 16.566 3.36402C16.9779 3.75303 16.9779 4.38372 16.566 4.77273L7.18157 13.6359C6.97562 13.8304 6.70569 13.9276 6.43576 13.9276Z" fill="#63469D"/>
<path d="M6.43583 13.9277C6.16446 13.9277 5.89322 13.8295 5.68703 13.6331L1.71216 9.84873C1.30196 9.45816 1.30463 8.82747 1.71814 8.44005C2.13168 8.05261 2.79947 8.05516 3.20968 8.4457L7.18455 12.2301C7.59475 12.6207 7.59208 13.2514 7.17857 13.6388C6.97291 13.8314 6.70431 13.9277 6.43583 13.9277Z" fill="#63469D"/>
</svg>
