<svg width="161" height="164" viewBox="0 0 161 164" fill="none" xmlns="http://www.w3.org/2000/svg">
<path d="M99.0421 30.4717L100.775 34.9188C100.833 35.0667 100.889 35.2129 100.946 35.3572C102.592 39.5856 103.64 42.2776 105.418 44.3811C106.988 46.2377 108.948 47.7247 111.159 48.7356C113.664 49.8809 116.538 50.1649 121.054 50.611C121.208 50.6262 121.364 50.6416 121.522 50.6573L129.346 51.4319C137.096 52.1993 142.737 52.7603 146.891 53.554C151.1 54.3582 153.261 55.3193 154.465 56.5148C156.987 59.0205 158.208 62.5517 157.773 66.08C157.565 67.7635 156.46 69.8545 153.647 73.0873C150.87 76.278 146.781 80.2039 141.161 85.5956L132.363 94.0355L132.057 94.3289C129.085 97.1795 127.191 98.9953 125.973 101.209C124.898 103.165 124.23 105.318 124.011 107.539C123.762 110.053 124.297 112.622 125.135 116.654L125.221 117.069L127.306 127.102C129.04 135.451 130.304 141.547 130.84 146.126C131.385 150.787 131.087 153.296 130.251 154.819C128.48 158.046 125.272 160.23 121.621 160.695C119.897 160.914 117.454 160.272 113.317 158.056C109.252 155.879 104.045 152.468 96.913 147.794L94.1499 145.983C94.0078 145.889 93.8675 145.797 93.7289 145.707C89.6927 143.06 87.1241 141.375 84.295 140.707C81.7994 140.117 79.2006 140.117 76.705 140.707C73.8759 141.375 71.3073 143.06 67.2711 145.707C67.1326 145.797 66.9922 145.889 66.8501 145.983L64.087 147.794C56.9553 152.468 51.7476 155.879 47.6834 158.056C43.5465 160.272 41.1034 160.914 39.3793 160.695C35.7282 160.23 32.5199 158.046 30.7492 154.819C29.9131 153.296 29.6148 150.787 30.1601 146.126C30.6957 141.547 31.9596 135.451 33.6941 127.102L35.7786 117.069L35.8649 116.654C36.7035 112.622 37.2377 110.053 36.9893 107.539C36.7699 105.318 36.1022 103.165 35.0267 101.209C33.8091 98.9953 31.9155 97.1795 28.9427 94.3288C28.842 94.2322 28.74 94.1345 28.6368 94.0355L19.839 85.5956C14.2188 80.2039 10.1298 76.278 7.35345 73.0873C4.54045 69.8545 3.43483 67.7635 3.22726 66.08C2.79222 62.5517 4.01348 59.0205 6.53538 56.5148C7.73863 55.3193 9.89984 54.3582 14.109 53.554C18.2634 52.7603 23.9041 52.1993 31.6545 51.4319L39.4777 50.6573C39.6357 50.6416 39.7917 50.6262 39.9459 50.611C44.4615 50.1649 47.3364 49.8809 49.8412 48.7356C52.0521 47.7247 54.0123 46.2377 55.5816 44.3811C57.3595 42.2776 58.4078 39.5856 60.0543 35.3573C60.1105 35.213 60.1674 35.0668 60.2251 34.9188L61.9579 30.4717C65.222 22.0949 67.6111 15.97 69.7581 11.6223C71.9494 7.18495 73.6319 5.17033 75.1926 4.35839C78.5193 2.6278 82.4807 2.6278 85.8074 4.35839C87.3681 5.17033 89.0506 7.18495 91.2419 11.6223C93.3889 15.97 95.778 22.0949 99.0421 30.4717Z" stroke="black" stroke-width="5"/>
</svg>
